<svg xmlns="http://www.w3.org/2000/svg" width="334.709" height="55.64" viewBox="0 0 334.709 55.64"><defs><style>.a,.e{fill:#00c689;}.a{font-size:38px;font-family:Montserrat-SemiBold, Montserrat;font-weight:600;letter-spacing:-0.042em;}.b{fill:#283a50;}.c{fill:#fff;}.d{fill:#00859b;}.f{fill:#00ed65;}</style></defs><g transform="translate(-161.335 -170.964)"><text class="a" transform="translate(369.044 209.177)"><tspan x="-126.673" y="0">inspire</tspan><tspan class="b" y="0"> </tspan><tspan class="c" y="0">capital</tspan></text><g transform="translate(161.335 170.964)"><g transform="translate(22.117 0.004)"><path class="d" d="M193.058,173.58l-4.75,4.75,19.956,19.957a8.125,8.125,0,0,0,10.773.857,7.82,7.82,0,0,0,.6-11.6L205.672,173.58A8.919,8.919,0,0,0,193.058,173.58Z" transform="translate(-177.26 -170.967)"/><path class="e" d="M221.7,197.224l-.081.089-5.447,5.44L201.424,217.5l-5.367,5.376c-.054.054-.108.107-.161.151.1-.1.187-.2.277-.294a2.857,2.857,0,0,0,.259-.3c.08-.1.16-.205.241-.3s.151-.214.223-.321a5.108,5.108,0,0,0,.393-.67,7.611,7.611,0,0,0,.455-1.045c.045-.125.081-.241.117-.366a7.781,7.781,0,0,0-.117-4.814c-.08-.241-.178-.472-.277-.7a7.951,7.951,0,0,0-1.571-2.241L181.938,198.01a8.917,8.917,0,0,1,0-12.619l8.43-8.438,19.959,19.959.312.312a7.818,7.818,0,0,0,8.8,1.571,4.185,4.185,0,0,0,.393-.2c.107-.053.205-.107.312-.17a6.83,6.83,0,0,0,.768-.526,5.28,5.28,0,0,0,.491-.4.2.2,0,0,0,.044-.036C221.535,197.384,221.614,197.3,221.7,197.224Z" transform="translate(-179.323 -169.593)"/></g><path class="f" d="M201.873,216.28c-.08-.241-.178-.472-.277-.7a7.951,7.951,0,0,0-1.571-2.241l-13.958-13.958a8.917,8.917,0,0,1,0-12.619l8.43-8.438-4.751-4.751a8.913,8.913,0,0,0-12.609,0l-13.191,13.189a8.917,8.917,0,0,0,0,12.61l24.71,24.709a8.118,8.118,0,0,0,10.77.858,6.877,6.877,0,0,0,.6-.546c.053-.044.107-.1.161-.151.036-.044.08-.09.116-.143a2.857,2.857,0,0,0,.259-.3c.08-.1.16-.205.241-.3s.151-.214.223-.321a5.107,5.107,0,0,0,.393-.67,5.965,5.965,0,0,0,.455-1.045c.045-.125.081-.241.117-.366A7.781,7.781,0,0,0,201.873,216.28ZM171.8,195.893a3.3,3.3,0,1,1,0-4.661A3.3,3.3,0,0,1,171.8,195.893Z" transform="translate(-161.335 -170.964)"/></g></g></svg>